#!OML:ASF E:\Style6\Style6.ASF
:FULLY-SPECIFIED
:DEGREES
3585
root 0.270572 18.2453 0.622995 11.3142 -8.37691 -3.58829
lowerback -4.70523 -0.397796 1.51456
upperback -3.18174 -0.592244 2.41153
thorax -0.621075 -0.300609 1.60191
lowerneck -5.44607 -7.27677 0.316185
upperneck 7.77137 -9.35262 -5.43256
head 3.17251 -4.85208 -2.22873
rclavicle -1.95679e-014 -9.14409e-015
rhumerus -32.1158 -7.18236 -73.4407
rradius 25.8943
rwrist 24.0924
rhand -12.6094 14.5608
rfingers 7.12502
rthumb 13.4697 -14.9837
lclavicle -1.95679e-014 -9.14409e-015
lhumerus -45.8619 22.8344 66.0466
lradius 14.2438
lwrist -37.3699
lhand -5.11669 17.9458
lfingers 7.12502
lthumb 20.6813 46.8639
rfemur -10.7945 16.6976 19.9279
rtibia 7.31782
rfoot -1.28358 -14.0287
rtoes -21.7122
lfemur -13.8187 -18.3529 -14.3186
ltibia 19.7662
lfoot -10.0322 27.6622
ltoes -6.87405
3586
root 0.270051 18.2451 0.612714 11.2808 -8.44008 -3.56398
lowerback -4.74783 -0.3833 1.50337
upperback -3.11034 -0.575714 2.3772
thorax -0.52434 -0.292202 1.57273
lowerneck -5.52898 -7.40716 0.441183
upperneck 7.86295 -9.52527 -5.5581
head 3.20173 -4.94086 -2.30516
rclavicle -2.21521e-014 -1.53064e-014
rhumerus -32.1215 -8.45395 -72.8521
rradius 25.312
rwrist 25.1836
rhand -12.0792 13.9161
rfingers 7.12502
rthumb 13.9807 -15.5938
lclavicle -2.21521e-014 -1.53064e-014
lhumerus -45.1269 22.3135 66.8439
lradius 14.4454
lwrist -36.5242
lhand -5.20474 18.167
lfingers 7.12502
lthumb 20.5967 47.0943
rfemur -10.7283 16.7539 19.8954
rtibia 7.20184
rfoot -1.25645 -14.0286
rtoes -21.5405
lfemur -13.8005 -18.4534 -14.3354
ltibia 19.7386
lfoot -10.1093 27.7926
ltoes -6.68785
3587
root 0.268725 18.2457 0.600462 11.2519 -8.50055 -3.52125
lowerback -4.74632 -0.390054 1.44548
upperback -3.08768 -0.583081 2.35431
thorax -0.501334 -0.295211 1.58119
lowerneck -5.52445 -7.52695 0.491376
upperneck 7.9398 -9.68035 -5.66156
head 3.21423 -5.02129 -2.35577
rclavicle -3.40419e-015 1.80894e-014
rhumerus -32.1886 -9.59079 -72.2951
rradius 24.723
rwrist 26.1661
rhand -11.5768 13.3612
rfingers 7.12502
rthumb 14.4648 -16.1147
lclavicle -3.40419e-015 1.80894e-014
lhumerus -44.4903 21.8962 67.5168
lradius 14.6549
lwrist -35.7879
lhand -5.26352 18.3211
lfingers 7.12502
lthumb 20.5402 47.2544
rfemur -10.6791 16.8043 19.8453
rtibia 7.07044
rfoot -1.16798 -14.0336
rtoes -21.7593
lfemur -13.8034 -18.5492 -14.3627
ltibia 19.7197
lfoot -10.112 27.923
ltoes -6.37212
3588
root 0.268285 18.2469 0.586237 11.2583 -8.50831 -3.53756
lowerback -4.7386 -0.417477 1.44771
upperback -3.10216 -0.619176 2.36456
thorax -0.519836 -0.313303 1.58912
lowerneck -5.39769 -7.64295 0.501858
upperneck 7.92098 -9.8323 -5.75316
head 3.17287 -5.0988 -2.38406
rclavicle 4.72114e-016 -1.82882e-014
rhumerus -32.3681 -10.5911 -71.7524
rradius 24.2932
rwrist 27.1158
rhand -11.0473 12.8431
rfingers 7.12502
rthumb 14.975 -16.5955
lclavicle 4.72114e-016 -1.82882e-014
lhumerus -43.9057 21.589 68.0846
lradius 14.8434
lwrist -35.2161
lhand -5.20336 18.4324
lfingers 7.12502
lthumb 20.598 47.3595
rfemur -10.6776 16.814 19.8532
rtibia 6.9581
rfoot -1.11936 -13.9951
rtoes -21.2235
lfemur -13.8437 -18.6137 -14.3118
ltibia 19.6831
lfoot -9.9932 27.9962
ltoes -6.6351
3589
root 0.270025 18.2481 0.573144 11.3081 -8.4635 -3.61995
lowerback -4.80052 -0.441511 1.5773
upperback -3.09875 -0.658218 2.3828
thorax -0.482544 -0.334473 1.53302
lowerneck -5.29961 -7.76337 0.481744
upperneck 7.88214 -9.99107 -5.80245
head 3.13346 -5.17886 -2.39421
rclavicle -1.98785e-015 2.06736e-014
rhumerus -32.591 -11.4837 -71.2487
rradius 24.0166
rwrist 27.9602
rhand -10.7432 12.6021
rfingers 7.12502
rthumb 15.2679 -16.8144
lclavicle -1.98785e-015 2.06736e-014
lhumerus -43.239 21.2204 68.7446
lradius 15.0231
lwrist -34.5622
lhand -5.24395 18.564
lfingers 7.12502
lthumb 20.559 47.4953
rfemur -10.6566 16.7852 19.9266
rtibia 6.75563
rfoot -1.04718 -13.9735
rtoes -20.742
lfemur -13.9378 -18.6704 -14.1784
ltibia 19.6739
lfoot -9.95107 28.0257
ltoes -6.77336
